<svg xmlns="http://www.w3.org/2000/svg" width="192" height="192" viewBox="0 0 192 192">
  <defs>
    <linearGradient id="g" x1="0" y1="0" x2="1" y2="1">
      <stop offset="0%" stop-color="#5ce1e6"/>
      <stop offset="100%" stop-color="#0ea5e9"/>
    </linearGradient>
  </defs>
  <rect width="192" height="192" rx="40" fill="#0b1220"/>
  <rect x="24" y="24" width="144" height="144" rx="28" fill="url(#g)" opacity="0.25"/>
  <path d="M45 63h102v66H45z" rx="8" fill="#e7edf9"/>
  <path d="M53 71h14v10H53zm18 0h14v10H71zm18 0h14v10H89zm18 0h14v10h-14zm18 0h14v10h-14zM53 85h22v10H53zm26 0h22v10H79zm26 0h34v10h-34zM53 99h86v10H53zm0 14h52v10H53z" fill="#0b1220"/>
</svg>
