<svg xmlns="http://www.w3.org/2000/svg" width="512" height="512" viewBox="0 0 512 512">
  <defs>
    <linearGradient id="g" x1="0" y1="0" x2="1" y2="1">
      <stop offset="0%" stop-color="#5ce1e6"/>
      <stop offset="100%" stop-color="#0ea5e9"/>
    </linearGradient>
  </defs>
  <rect width="512" height="512" rx="108" fill="#0b1220"/>
  <rect x="64" y="64" width="384" height="384" rx="72" fill="url(#g)" opacity="0.25"/>
  <path d="M120 172h272v176H120z" rx="20" fill="#e7edf9"/>
  <path d="M142 194h38v28h-38zm48 0h38v28h-38zm48 0h38v28h-38zm48 0h38v28h-38zm48 0h38v28h-38zM142 232h60v28h-60zm70 0h60v28h-60zm70 0h110v28H282zM142 270h250v28H142zm0 38h150v28H142z" fill="#0b1220"/>
</svg>
